<?xml version="1.0" standalone="no"?>
<!DOCTYPE svg PUBLIC "-//W3C//DTD SVG 20010904//EN"
 "http://www.w3.org/TR/2001/REC-SVG-20010904/DTD/svg10.dtd">
<svg version="1.0" xmlns="http://www.w3.org/2000/svg"
 width="1024.000000pt" height="1024.000000pt" viewBox="0 0 1024.000000 1024.000000"
 preserveAspectRatio="xMidYMid meet">

<g transform="translate(0.000000,1024.000000) scale(0.100000,-0.100000)"
fill="#000000" stroke="none">
<path d="M8011 8229 c-97 -18 -165 -82 -215 -201 -37 -91 -178 -484 -219 -613
-19 -60 -88 -261 -152 -445 -64 -184 -168 -486 -230 -670 -287 -845 -485
-1420 -496 -1442 -10 -19 -13 -19 -309 -3 -52 2 -194 10 -315 16 -121 6 -221
12 -222 13 -7 6 -59 503 -65 621 l-3 70 78 31 c309 124 526 311 648 559 62
126 90 231 96 365 9 182 -41 314 -167 440 -251 253 -641 220 -922 -78 -80 -85
-137 -179 -188 -309 -80 -203 -110 -373 -110 -615 l0 -148 -171 0 -170 0 6 23
c4 12 26 85 50 162 24 77 67 217 95 310 95 314 243 780 396 1252 92 285 114
364 114 410 -1 151 -123 263 -274 251 -100 -8 -177 -63 -226 -158 -21 -42
-122 -335 -190 -550 -23 -74 -94 -295 -157 -490 -63 -195 -144 -449 -179 -565
-35 -115 -92 -302 -127 -415 l-64 -205 -194 -6 c-585 -20 -1042 -148 -1463
-412 -464 -290 -764 -638 -881 -1022 -81 -267 -86 -487 -18 -715 80 -269 255
-462 558 -615 l100 -50 8 -103 c9 -119 59 -307 108 -404 189 -375 585 -599
1057 -598 307 0 551 68 817 228 61 36 141 91 179 121 38 31 83 67 100 81 56
45 243 243 316 335 121 152 210 298 289 476 48 110 47 188 -4 255 -69 90 -199
81 -247 -16 -9 -19 -42 -87 -72 -151 -191 -403 -556 -741 -926 -857 -214 -68
-448 -80 -625 -32 -226 61 -415 216 -505 413 -30 67 -62 185 -51 191 3 2 38 7
76 10 234 23 477 109 679 243 108 71 324 278 405 386 141 192 241 386 367 716
31 80 58 148 60 150 2 2 27 8 56 12 100 17 303 48 348 53 25 3 54 8 65 10 48
9 405 31 405 24 0 -26 74 -642 85 -714 62 -385 154 -599 321 -753 107 -98 217
-141 359 -141 260 0 541 290 760 784 77 175 107 253 273 706 l28 75 139 12
c260 22 498 71 675 138 412 157 644 403 675 715 23 230 -140 457 -365 509
-143 33 -304 -14 -381 -110 -28 -35 -34 -52 -37 -103 -3 -51 0 -67 20 -95 48
-71 136 -93 201 -52 18 12 52 30 75 42 l44 21 45 -24 c60 -30 83 -73 83 -154
0 -48 -6 -74 -32 -124 -114 -229 -490 -408 -938 -448 -52 -5 -96 -8 -97 -7 -3
2 46 145 157 460 173 492 377 1083 655 1900 90 264 182 532 204 595 48 135 53
205 20 274 -53 114 -169 177 -288 155z m-1844 -1530 c66 -25 113 -100 113
-184 0 -64 -47 -200 -93 -269 -53 -80 -143 -173 -229 -237 -77 -57 -185 -107
-197 -92 -13 17 6 357 23 422 45 164 134 288 249 345 56 28 90 32 134 15z
m-1943 -1177 c8 -14 -175 -598 -246 -785 -33 -86 -36 -88 -158 -130 -268 -92
-553 -237 -729 -370 -168 -128 -317 -282 -415 -431 -65 -99 -102 -171 -151
-301 -21 -55 -42 -104 -47 -109 -12 -15 -174 72 -232 125 -161 147 -235 360
-208 598 19 167 112 387 229 542 173 229 450 457 743 611 202 106 547 210 790
237 52 6 109 13 125 15 63 7 294 6 299 -2z m1018 -67 c10 -70 48 -498 48 -544
l0 -38 -119 -6 c-110 -6 -553 -52 -593 -61 -10 -2 -18 -3 -18 -2 0 2 9 29 21
62 21 62 87 271 144 459 19 61 41 127 49 147 l16 37 222 -2 223 -2 7 -50z
m1156 -907 c133 -8 182 -15 182 -24 0 -11 -47 -141 -147 -409 -44 -117 -173
-417 -199 -463 -52 -88 -123 -149 -159 -136 -53 21 -117 310 -160 719 -4 33
-8 74 -11 90 -8 58 -24 210 -24 229 0 18 7 19 168 12 92 -3 249 -11 350 -18z
m-2628 -370 c-67 -151 -115 -233 -197 -339 -132 -173 -317 -325 -476 -390 -73
-31 -206 -64 -215 -54 -10 9 29 116 72 199 91 178 232 328 425 454 111 73 420
237 428 228 3 -3 -14 -46 -37 -98z"/>
<path d="M2980 7195 c-172 -27 -389 -114 -529 -213 -95 -67 -229 -205 -285
-294 -54 -88 -98 -187 -121 -274 -19 -70 -22 -267 -6 -337 15 -62 64 -160 108
-214 75 -91 220 -159 319 -150 160 16 271 165 204 275 -40 65 -119 88 -211 60
-34 -10 -42 -9 -60 8 -55 49 -77 156 -55 261 54 259 304 482 626 560 94 23
119 25 245 20 160 -5 249 -26 381 -87 116 -54 187 -105 321 -232 130 -122 183
-154 241 -143 46 8 88 38 107 75 21 41 19 113 -5 161 -43 84 -253 268 -414
361 -250 146 -578 208 -866 163z"/>
</g>
</svg>
